HIERARCHY
ROOT Hips
{
	OFFSET 0.000000 87.230942 0.000000
	CHANNELS 6 Xposition Yposition Zposition Xrotation Yrotation Zrotation
	JOINT Pelvis
	{
		OFFSET 0.000000 0.000000 0.000000
		CHANNELS 3 Xrotation Yrotation Zrotation
		JOINT LeftUpLeg
		{
			OFFSET 12.017000 -9.376404 -2.439400
			CHANNELS 3 Xrotation Yrotation Zrotation
			JOINT LeftLeg
			{
				OFFSET -0.007312 -32.846973 2.110600
				CHANNELS 3 Xrotation Yrotation Zrotation
				JOINT LeftFoot
				{
					OFFSET 0.007312 -32.065170 -0.570400
					CHANNELS 3 Xrotation Yrotation Zrotation
					JOINT LeftToeBase
					{
						OFFSET 0.728300 -11.045900 13.180700
						CHANNELS 3 Xrotation Yrotation Zrotation
						End Site
						{
							OFFSET 0.000000 17.212589 0.000000
						}
					}
				}
				JOINT LeftPantLeg
				{
					OFFSET 0.002788 -16.709013 -3.143600
					CHANNELS 3 Xrotation Yrotation Zrotation
					End Site
					{
						OFFSET -0.605125 24.528742 0.000000
					}
				}
			}
			JOINT Left_Butt
			{
				OFFSET -6.630234 1.326584 -3.183700
				CHANNELS 3 Xrotation Yrotation Zrotation
				End Site
				{
					OFFSET -0.498041 20.188049 0.000000
				}
			}
		}
		JOINT RightUpLeg
		{
			OFFSET -11.717000 -9.376404 -2.439400
			CHANNELS 3 Xrotation Yrotation Zrotation
			JOINT RightLeg
			{
				OFFSET -0.003241 -32.846912 2.110600
				CHANNELS 3 Xrotation Yrotation Zrotation
				JOINT RightFoot
				{
					OFFSET 0.003241 -32.065136 -0.570500
					CHANNELS 3 Xrotation Yrotation Zrotation
					JOINT RightToeBase
					{
						OFFSET -0.728300 -11.045901 13.180700
						CHANNELS 3 Xrotation Yrotation Zrotation
						End Site
						{
							OFFSET 0.000000 17.212593 0.000000
						}
					}
				}
				JOINT RightPantLeg
				{
					OFFSET 0.008142 -16.708982 -3.143700
					CHANNELS 3 Xrotation Yrotation Zrotation
					End Site
					{
						OFFSET 0.605088 24.528715 0.000000
					}
				}
			}
			JOINT Right_Butt
			{
				OFFSET 6.630732 1.326584 -3.183700
				CHANNELS 3 Xrotation Yrotation Zrotation
				End Site
				{
					OFFSET 0.498015 20.188240 0.000000
				}
			}
		}
	}
	JOINT Spine
	{
		OFFSET -0.062400 7.848404 3.918300
		CHANNELS 3 Xrotation Yrotation Zrotation
		JOINT Spine1
		{
			OFFSET -0.072800 11.422302 0.713400
			CHANNELS 3 Xrotation Yrotation Zrotation
			JOINT Spine2
			{
				OFFSET -0.083200 13.054001 -1.931600
				CHANNELS 3 Xrotation Yrotation Zrotation
				JOINT Neck
				{
					OFFSET -0.092200 14.121796 -5.138800
					CHANNELS 3 Xrotation Yrotation Zrotation
					JOINT Head
					{
						OFFSET 0.000200 10.447403 -0.842000
						CHANNELS 3 Xrotation Yrotation Zrotation
						JOINT Visor
						{
							OFFSET 0.457100 25.671204 16.550400
							CHANNELS 3 Xrotation Yrotation Zrotation
							End Site
							{
								OFFSET 0.000000 26.061493 0.000000
							}
						}
						JOINT HairMidA
						{
							OFFSET 0.459400 31.585403 8.437400
							CHANNELS 3 Xrotation Yrotation Zrotation
							End Site
							{
								OFFSET 0.000000 26.061493 0.000000
							}
						}
						JOINT HairMidB
						{
							OFFSET 0.464000 33.309204 -8.389700
							CHANNELS 3 Xrotation Yrotation Zrotation
							End Site
							{
								OFFSET 0.000000 26.061493 0.000000
							}
						}
						JOINT HairMidC
						{
							OFFSET 0.466600 27.991196 -17.375099
							CHANNELS 3 Xrotation Yrotation Zrotation
							End Site
							{
								OFFSET 0.000000 26.061493 0.000000
							}
						}
						JOINT HairMidD
						{
							OFFSET 0.467700 17.888092 -21.169500
							CHANNELS 3 Xrotation Yrotation Zrotation
							End Site
							{
								OFFSET 0.000000 26.061493 0.000000
							}
						}
						JOINT HairMidE
						{
							OFFSET 5.325700 3.514603 -14.369699
							CHANNELS 3 Xrotation Yrotation Zrotation
							End Site
							{
								OFFSET 0.000000 26.061493 0.000000
							}
						}
						JOINT HairMidF
						{
							OFFSET -4.394100 3.514603 -14.372400
							CHANNELS 3 Xrotation Yrotation Zrotation
							End Site
							{
								OFFSET 0.000000 26.061493 0.000000
							}
						}
						JOINT HairLeftA
						{
							OFFSET 15.319900 25.746506 2.623300
							CHANNELS 3 Xrotation Yrotation Zrotation
							End Site
							{
								OFFSET 0.000000 26.061493 0.000000
							}
						}
						JOINT HairLeftB
						{
							OFFSET 12.619500 29.289398 -8.731499
							CHANNELS 3 Xrotation Yrotation Zrotation
							End Site
							{
								OFFSET 0.000000 26.061493 0.000000
							}
						}
						JOINT HairLeftC
						{
							OFFSET 15.714800 15.959900 2.909800
							CHANNELS 3 Xrotation Yrotation Zrotation
							End Site
							{
								OFFSET 0.000000 26.061493 0.000000
							}
						}
						JOINT HairLeftD
						{
							OFFSET 16.101700 18.437408 -7.553200
							CHANNELS 3 Xrotation Yrotation Zrotation
							End Site
							{
								OFFSET 0.000000 26.061493 0.000000
							}
						}
						JOINT HairLeftE
						{
							OFFSET 9.731900 17.915009 -18.316799
							CHANNELS 3 Xrotation Yrotation Zrotation
							End Site
							{
								OFFSET 0.000000 26.061493 0.000000
							}
						}
						JOINT HairLeftF
						{
							OFFSET 11.204300 4.953598 -9.668100
							CHANNELS 3 Xrotation Yrotation Zrotation
							End Site
							{
								OFFSET 0.000000 26.061493 0.000000
							}
						}
						JOINT HairRightA
						{
							OFFSET -14.397900 25.746307 2.615100
							CHANNELS 3 Xrotation Yrotation Zrotation
							End Site
							{
								OFFSET 0.000000 26.061493 0.000000
							}
						}
						JOINT HairRightB
						{
							OFFSET -11.691200 29.289200 -8.738199
							CHANNELS 3 Xrotation Yrotation Zrotation
							End Site
							{
								OFFSET 0.000000 26.061493 0.000000
							}
						}
						JOINT HairRightC
						{
							OFFSET -14.792900 15.959702 2.901400
							CHANNELS 3 Xrotation Yrotation Zrotation
							End Site
							{
								OFFSET 0.000000 26.061493 0.000000
							}
						}
						JOINT HairRightD
						{
							OFFSET -15.174000 18.437195 -7.561900
							CHANNELS 3 Xrotation Yrotation Zrotation
							End Site
							{
								OFFSET 0.000000 26.061493 0.000000
							}
						}
						JOINT HairRightE
						{
							OFFSET -8.798200 17.914902 -18.322001
							CHANNELS 3 Xrotation Yrotation Zrotation
							End Site
							{
								OFFSET 0.000000 26.061493 0.000000
							}
						}
						JOINT HairRightF
						{
							OFFSET -10.275200 4.953506 -9.674099
							CHANNELS 3 Xrotation Yrotation Zrotation
							End Site
							{
								OFFSET 0.000000 26.061493 0.000000
							}
						}
					}
				}
				JOINT LeftShoulder
				{
					OFFSET 5.133500 7.341202 -1.867600
					CHANNELS 3 Xrotation Yrotation Zrotation
					JOINT LeftArm
					{
						OFFSET 8.072663 0.936867 -2.176600
						CHANNELS 3 Xrotation Yrotation Zrotation
						JOINT LeftForeArm
						{
							OFFSET 31.271999 0.000000 0.000000
							CHANNELS 3 Xrotation Yrotation Zrotation
							JOINT LeftHand
							{
								OFFSET 31.771030 0.000000 0.000000
								CHANNELS 3 Xrotation Yrotation Zrotation
								JOINT LeftHandThumb1
								{
									OFFSET 2.886520 -2.557846 4.416640
									CHANNELS 3 Xrotation Yrotation Zrotation
									JOINT LeftHandThumb2
									{
										OFFSET 2.371025 -1.368912 1.368911
										CHANNELS 3 Xrotation Yrotation Zrotation
										JOINT LeftHandThumb3
										{
											OFFSET 2.243378 -1.295212 1.295213
											CHANNELS 3 Xrotation Yrotation Zrotation
											End Site
											{
												OFFSET -0.332611 2.876945 0.020015
											}
										}
									}
								}
								JOINT LeftHandIndex1
								{
									OFFSET 8.568985 -0.641945 3.119977
									CHANNELS 3 Xrotation Yrotation Zrotation
									JOINT LeftHandIndex2
									{
										OFFSET 3.348503 0.000000 0.000000
										CHANNELS 3 Xrotation Yrotation Zrotation
										JOINT LeftHandIndex3
										{
											OFFSET 3.314552 0.000000 0.000000
											CHANNELS 3 Xrotation Yrotation Zrotation
											End Site
											{
												OFFSET -1.032898 3.075485 0.678796
											}
										}
									}
								}
								JOINT LeftHandMiddle1
								{
									OFFSET 8.124603 0.000000 0.000000
									CHANNELS 3 Xrotation Yrotation Zrotation
									JOINT LeftHandMiddle2
									{
										OFFSET 4.166275 0.000000 0.000000
										CHANNELS 3 Xrotation Yrotation Zrotation
										JOINT LeftHandMiddle3
										{
											OFFSET 3.018135 0.000000 0.000000
											CHANNELS 3 Xrotation Yrotation Zrotation
											End Site
											{
												OFFSET -1.032700 2.767982 0.617226
											}
										}
									}
								}
								JOINT LeftHandRing1
								{
									OFFSET 8.571686 -0.031357 -2.884048
									CHANNELS 3 Xrotation Yrotation Zrotation
									JOINT LeftHandRing2
									{
										OFFSET 3.671181 0.000000 0.000000
										CHANNELS 3 Xrotation Yrotation Zrotation
										JOINT LeftHandRing3
										{
											OFFSET 2.728851 0.000000 0.000000
											CHANNELS 3 Xrotation Yrotation Zrotation
											End Site
											{
												OFFSET -0.815796 2.539223 0.577389
											}
										}
									}
								}
								JOINT LeftHandPinky1
								{
									OFFSET 7.854515 -0.675232 -5.213020
									CHANNELS 3 Xrotation Yrotation Zrotation
									JOINT LeftHandPinky2
									{
										OFFSET 3.068596 0.000000 0.000000
										CHANNELS 3 Xrotation Yrotation Zrotation
										JOINT LeftHandPinky3
										{
											OFFSET 2.396042 0.000000 0.000000
											CHANNELS 3 Xrotation Yrotation Zrotation
											End Site
											{
												OFFSET -0.524597 2.267998 0.567429
											}
										}
									}
								}
							}
							JOINT LeftSleeve
							{
								OFFSET 19.684509 -0.200119 0.476146
								CHANNELS 3 Xrotation Yrotation Zrotation
								End Site
								{
									OFFSET -0.031017 25.731133 -0.002868
								}
							}
						}
					}
				}
				JOINT RightShoulder
				{
					OFFSET -4.395900 7.341202 -1.870200
					CHANNELS 3 Xrotation Yrotation Zrotation
					JOINT RightArm
					{
						OFFSET -8.071453 0.936867 -2.181100
						CHANNELS 3 Xrotation Yrotation Zrotation
						JOINT RightForeArm
						{
							OFFSET -31.272011 0.000000 0.000000
							CHANNELS 3 Xrotation Yrotation Zrotation
							JOINT RightHand
							{
								OFFSET -31.771019 0.000000 0.000000
								CHANNELS 3 Xrotation Yrotation Zrotation
								JOINT RightHandThumb1
								{
									OFFSET -2.886520 -2.557808 4.416626
									CHANNELS 3 Xrotation Yrotation Zrotation
									JOINT RightHandThumb2
									{
										OFFSET -2.371056 -1.368927 1.368928
										CHANNELS 3 Xrotation Yrotation Zrotation
										JOINT RightHandThumb3
										{
											OFFSET -2.243362 -1.295204 1.295206
											CHANNELS 3 Xrotation Yrotation Zrotation
											End Site
											{
												OFFSET 0.332642 2.876938 0.020047
											}
										}
									}
								}
								JOINT RightHandIndex1
								{
									OFFSET -8.568993 -0.641953 3.120017
									CHANNELS 3 Xrotation Yrotation Zrotation
									JOINT RightHandIndex2
									{
										OFFSET -3.348518 0.000000 0.000000
										CHANNELS 3 Xrotation Yrotation Zrotation
										JOINT RightHandIndex3
										{
											OFFSET -3.314552 0.000000 0.000000
											CHANNELS 3 Xrotation Yrotation Zrotation
											End Site
											{
												OFFSET 1.032898 3.075478 0.678804
											}
										}
									}
								}
								JOINT RightHandMiddle1
								{
									OFFSET -8.124588 0.000000 0.000000
									CHANNELS 3 Xrotation Yrotation Zrotation
									JOINT RightHandMiddle2
									{
										OFFSET -4.166275 0.000000 0.000000
										CHANNELS 3 Xrotation Yrotation Zrotation
										JOINT RightHandMiddle3
										{
											OFFSET -3.018097 0.000000 0.000000
											CHANNELS 3 Xrotation Yrotation Zrotation
											End Site
											{
												OFFSET 1.032700 2.767937 0.617197
											}
										}
									}
								}
								JOINT RightHandRing1
								{
									OFFSET -8.571747 -0.031349 -2.884061
									CHANNELS 3 Xrotation Yrotation Zrotation
									JOINT RightHandRing2
									{
										OFFSET -3.671204 0.000000 0.000000
										CHANNELS 3 Xrotation Yrotation Zrotation
										JOINT RightHandRing3
										{
											OFFSET -2.728874 0.000000 0.000000
											CHANNELS 3 Xrotation Yrotation Zrotation
											End Site
											{
												OFFSET 0.815804 2.539261 0.577413
											}
										}
									}
								}
								JOINT RightHandPinky1
								{
									OFFSET -7.854561 -0.675247 -5.212970
									CHANNELS 3 Xrotation Yrotation Zrotation
									JOINT RightHandPinky2
									{
										OFFSET -3.068550 0.000000 0.000000
										CHANNELS 3 Xrotation Yrotation Zrotation
										JOINT RightHandPinky3
										{
											OFFSET -2.395981 0.000000 0.000000
											CHANNELS 3 Xrotation Yrotation Zrotation
											End Site
											{
												OFFSET 0.524605 2.267952 0.567413
											}
										}
									}
								}
							}
							JOINT RightSleeve
							{
								OFFSET -19.684753 -0.200165 0.476065
								CHANNELS 3 Xrotation Yrotation Zrotation
								End Site
								{
									OFFSET 0.031342 25.731255 -0.002917
								}
							}
						}
					}
				}
				JOINT Hood
				{
					OFFSET 0.369700 14.447800 -5.317800
					CHANNELS 3 Xrotation Yrotation Zrotation
					JOINT Hood1
					{
						OFFSET 0.001700 -5.553802 -5.895100
						CHANNELS 3 Xrotation Yrotation Zrotation
						JOINT Hood2
						{
							OFFSET -0.000200 -8.380501 0.763600
							CHANNELS 3 Xrotation Yrotation Zrotation
							End Site
							{
								OFFSET 0.000000 8.415215 0.000000
							}
						}
					}
				}
				JOINT Left_Breast
				{
					OFFSET 5.682500 3.120102 3.188800
					CHANNELS 3 Xrotation Yrotation Zrotation
					End Site
					{
						OFFSET 0.000000 10.528564 0.000000
					}
				}
				JOINT Right_Breast
				{
					OFFSET -4.947600 3.120102 3.185900
					CHANNELS 3 Xrotation Yrotation Zrotation
					End Site
					{
						OFFSET 0.000000 10.528564 0.000000
					}
				}
				JOINT Whistle
				{
					OFFSET 0.368200 11.471298 0.095400
					CHANNELS 3 Xrotation Yrotation Zrotation
					JOINT Whistle1
					{
						OFFSET -0.002000 -6.349899 7.479800
						CHANNELS 3 Xrotation Yrotation Zrotation
						JOINT Whistle2
						{
							OFFSET -0.001300 -8.217598 4.717600
							CHANNELS 3 Xrotation Yrotation Zrotation
							End Site
							{
								OFFSET 0.000000 9.475479 0.000000
							}
						}
					}
				}
			}
		}
		JOINT Belly
		{
			OFFSET 0.212400 1.593002 3.163700
			CHANNELS 3 Xrotation Yrotation Zrotation
			End Site
			{
				OFFSET 0.000000 7.496635 0.000000
			}
		}
	}
	JOINT FitGrandmaFacialAnim_Joint
	{
		OFFSET 1.150000 -86.211197 -1.220100
		CHANNELS 3 Xrotation Yrotation Zrotation
		End Site
		{
			OFFSET 0.000000 31.666618 0.000000
		}
	}
}
MOTION
Frames: 4
Frame Time: 0.016667
-2.596031 73.169357 1.968993 11.676244 -49.425940 11.279149 0.000000 -0.000001 0.000000 -62.310019 28.878149 43.416955 47.636809 -21.391601 3.308696 -2.466242 1.388780 -10.658849 0.000000 0.000000 -0.000000 0.000000 -0.000002 -0.000000 -0.000005 -0.000000 -0.000000 -29.833727 -1.493211 -26.649713 55.567328 3.695438 -6.881592 -32.973141 -4.594300 25.477002 0.000000 -0.000005 -0.000000 0.000002 -0.000001 -0.000000 -0.000000 0.000001 -0.000002 10.972998 2.772439 -2.041733 6.100715 5.566531 -4.284690 -5.786911 6.328147 -3.046188 2.318648 9.363418 -0.265731 -4.146871 23.161856 -3.522969 -0.000000 0.000000 0.000000 -0.000000 0.000000 0.000000 -0.000000 0.000000 0.000000 -0.000000 0.000000 0.000000 -0.000000 0.000000 0.000000 -0.000000 0.000000 0.000000 -0.000000 0.000000 0.000000 -0.000000 0.000000 0.000000 -0.000000 0.000000 0.000000 -0.000000 0.000000 0.000000 -0.000000 0.000000 0.000000 -0.000000 0.000000 0.000000 -0.000000 0.000000 0.000000 -0.000000 0.000000 0.000000 -0.000000 0.000000 0.000000 -0.000000 0.000000 0.000000 -0.000000 0.000000 0.000000 -0.000000 0.000000 0.000000 -0.000000 0.000000 0.000000 -1.882849 -16.244773 -2.883350 -10.641500 2.224941 -45.488370 -22.862392 -25.786228 -15.871700 2.491066 -2.511884 6.860479 18.457936 -9.513801 13.216571 -1.150202 11.255286 -8.400884 -0.000000 -0.000000 0.000001 -1.232796 -5.771927 -0.192322 0.133967 -0.197646 -4.602083 -0.000001 0.000001 0.000004 1.884741 4.663382 -4.597387 0.476665 -1.009850 -12.986443 -0.000000 -0.000000 0.000001 3.024626 7.938945 -14.103460 -0.708058 -0.566171 -18.895735 0.000001 -0.000000 0.000002 2.010350 6.305999 -22.386526 -0.815379 -0.210776 -16.746483 0.000000 -0.000001 0.000002 0.000003 -0.000000 0.000001 -5.080960 24.428083 1.493068 6.647386 -34.818549 57.612912 -21.031990 44.833813 19.961694 -0.087252 35.608488 7.474283 55.149574 18.649524 -29.698267 -0.442573 -14.180542 7.313120 0.000000 -0.000001 -0.000000 5.673417 7.585063 36.844158 1.050467 3.824459 68.900230 0.000000 0.000001 -0.000000 -0.125674 1.886095 45.000753 -1.169012 3.204681 68.417670 0.000003 -0.000001 -0.000000 -5.311994 1.216637 58.508821 -0.745192 1.667558 48.011271 0.000001 -0.000001 0.000001 -7.756756 -9.376472 47.264028 -0.526060 1.541588 45.600484 -0.000003 0.000001 0.000001 -0.000002 -0.000002 0.000002 -0.000001 0.000000 0.000000 -0.000001 0.000000 0.000000 -0.000001 0.000000 0.000000 -0.000001 0.000000 0.000000 -0.000001 0.000000 0.000000 -0.000001 0.000000 0.000000 -0.000001 0.000000 -0.000000 -0.000001 0.000000 -0.000000 0.000001 0.000001 -0.000001 0.000000 -0.000001 0.000000 
-2.627781 73.166649 1.957558 11.660193 -49.569671 11.283005 -0.000000 0.000003 -0.000000 -62.237073 28.884132 43.471941 47.672251 -21.211342 3.375257 -2.518135 1.407638 -10.770540 -0.000000 -0.000002 -0.000000 0.000001 -0.000000 0.000001 -0.000001 0.000000 -0.000001 -29.847913 -1.395399 -26.594924 55.625341 3.699927 -6.880318 -32.996535 -4.565146 25.450062 -0.000000 0.000000 0.000000 -0.000001 0.000001 0.000001 -0.000001 0.000001 0.000001 10.970764 2.828758 -2.056678 6.133758 5.604290 -4.247332 -5.764546 6.336158 -3.016236 2.313012 9.402304 -0.496346 -4.187046 23.085208 -3.410673 -0.000001 0.000000 0.000000 -0.000001 0.000000 0.000000 -0.000001 0.000000 0.000000 -0.000001 0.000000 0.000000 -0.000001 0.000000 0.000000 -0.000001 0.000000 0.000000 -0.000001 0.000000 0.000000 -0.000001 0.000000 0.000000 -0.000001 0.000000 0.000000 -0.000001 0.000000 0.000000 -0.000001 0.000000 0.000000 -0.000001 0.000000 0.000000 -0.000001 0.000000 0.000000 -0.000001 0.000000 0.000000 -0.000001 0.000000 0.000000 -0.000001 0.000000 0.000000 -0.000001 0.000000 0.000000 -0.000001 0.000000 0.000000 -0.000001 0.000000 0.000000 -1.902992 -16.283504 -3.000823 -10.665534 2.222346 -45.395121 -22.827805 -25.744967 -15.838632 2.461418 -2.435293 6.885873 18.464899 -9.494869 13.214776 -1.134541 11.275832 -8.403360 0.000001 0.000002 -0.000003 -1.233058 -5.735415 -0.262380 0.133852 -0.200953 -4.674392 0.000006 -0.000002 0.000005 1.884271 4.658509 -4.668120 0.474428 -1.015930 -13.148155 -0.000001 0.000000 -0.000001 3.023515 7.934869 -14.172975 -0.709384 -0.572786 -19.056735 0.000000 0.000002 0.000001 2.010002 6.304104 -22.455447 -0.816763 -0.219705 -16.906993 0.000002 0.000005 0.000002 0.000004 -0.000000 0.000000 -5.036447 24.265319 1.406466 6.704568 -34.680326 57.476083 -20.413762 44.915444 19.709404 0.211605 35.320223 6.345776 55.149563 18.649528 -29.698270 -0.442552 -14.180560 7.313217 -0.000000 0.000002 -0.000000 5.673394 7.585038 36.844117 1.050463 3.824476 68.900230 -0.000003 -0.000000 0.000007 -0.125545 1.886267 45.000770 -1.169018 3.204657 68.417636 -0.000000 0.000003 -0.000006 -5.312116 1.216695 58.508760 -0.743514 1.669634 48.011244 0.000001 0.000002 -0.000005 -7.756758 -9.376492 47.263987 -0.524064 1.543681 45.600471 0.000004 0.000002 -0.000002 -0.000002 -0.000003 0.000006 0.000001 -0.000001 0.000001 0.000001 -0.000001 0.000001 0.000001 -0.000001 0.000001 0.000001 -0.000001 0.000001 0.000001 -0.000001 0.000001 0.000001 -0.000001 0.000001 -0.000001 -0.000001 0.000001 -0.000001 -0.000001 0.000001 -0.000000 -0.000003 0.000001 -0.000000 0.000003 -0.000000 
-2.656054 73.162781 1.937264 11.514651 -49.708215 11.208601 0.000000 -0.000001 -0.000000 -62.072165 28.904374 43.513376 47.702806 -21.231940 3.437388 -2.592816 1.424705 -10.875977 -0.000000 0.000000 -0.000000 0.000001 0.000003 -0.000001 -0.000004 -0.000000 -0.000000 -29.784163 -1.310927 -26.583187 55.688011 3.741209 -6.874771 -32.965891 -4.527701 25.414849 -0.000000 0.000002 0.000000 -0.000002 0.000000 0.000001 0.000002 -0.000000 -0.000001 10.990675 2.868017 -2.079072 6.210108 5.609810 -4.231205 -5.697422 6.318250 -3.012862 2.193450 9.464197 -0.640304 -4.095890 23.049771 -3.380865 -0.000000 0.000000 -0.000000 -0.000000 0.000000 -0.000000 -0.000000 0.000000 -0.000000 -0.000000 0.000000 -0.000000 -0.000000 0.000000 -0.000000 -0.000000 0.000000 -0.000000 -0.000000 0.000000 -0.000000 -0.000000 0.000000 -0.000000 -0.000000 0.000000 -0.000000 -0.000000 0.000000 -0.000000 -0.000000 0.000000 -0.000000 -0.000000 0.000000 -0.000000 -0.000000 0.000000 -0.000000 -0.000000 0.000000 -0.000000 -0.000000 0.000000 -0.000000 -0.000000 0.000000 -0.000000 -0.000000 0.000000 -0.000000 -0.000000 0.000000 -0.000000 -0.000000 0.000000 -0.000000 -1.908072 -16.258750 -3.020665 -10.687427 2.247394 -45.360034 -22.769658 -25.731447 -15.803246 2.450941 -2.428312 6.875500 18.484906 -9.440134 13.209248 -1.089333 11.335342 -8.410323 -0.000001 0.000001 0.000001 -1.233498 -5.629213 -0.465548 0.133368 -0.210502 -4.883996 0.000000 -0.000001 0.000002 1.883514 4.644734 -4.873353 0.467260 -1.037516 -13.616835 -0.000001 0.000000 -0.000003 3.021423 7.923319 -14.374500 -0.715601 -0.596502 -19.523319 0.000000 0.000002 -0.000003 2.012093 6.297366 -22.655584 -0.821030 -0.245832 -17.372234 0.000000 0.000000 -0.000001 0.000003 -0.000002 -0.000000 -5.072078 24.344575 1.612735 6.672746 -34.749636 56.881730 -18.584957 45.084026 18.881570 0.891849 34.215898 3.308653 55.149533 18.649555 -29.698253 -0.442579 -14.180579 7.313323 0.000001 0.000001 0.000001 5.673421 7.585022 36.844120 1.050416 3.824476 68.900271 -0.000004 0.000001 -0.000000 -0.125387 1.886440 45.000763 -1.169042 3.204653 68.417704 -0.000001 -0.000001 -0.000000 -5.312239 1.216731 58.508821 -0.741737 1.671690 48.011141 0.000001 -0.000001 -0.000001 -7.756752 -9.376538 47.264018 -0.522051 1.545793 45.600412 -0.000003 -0.000001 -0.000000 -0.000000 -0.000001 0.000001 0.000000 0.000001 -0.000001 0.000000 0.000001 -0.000001 0.000000 0.000001 -0.000001 0.000000 0.000001 -0.000001 0.000000 0.000001 -0.000001 0.000000 0.000001 -0.000001 0.000000 0.000001 -0.000001 0.000000 0.000001 -0.000001 -0.000000 0.000000 0.000000 0.000000 -0.000001 -0.000000 
-2.684989 73.161240 1.891762 11.434920 -49.893938 11.197582 -0.000000 0.000001 -0.000000 -61.925562 28.948606 43.545639 47.696126 -21.081905 3.533772 -2.632697 1.421293 -11.028160 -0.000000 0.000000 -0.000000 -0.000000 0.000001 0.000001 0.000003 -0.000000 0.000000 -29.804114 -1.160565 -26.534503 55.796498 3.771081 -6.869284 -32.964860 -4.487725 25.358378 -0.000000 0.000000 0.000000 -0.000002 -0.000003 0.000003 0.000001 0.000001 0.000001 10.999465 2.903213 -2.099997 6.262220 5.612160 -4.216227 -5.653942 6.298717 -3.010386 2.178522 9.585922 -0.934682 -4.140471 23.001132 -3.228225 -0.000000 -0.000000 -0.000000 -0.000000 -0.000000 -0.000000 -0.000000 -0.000000 -0.000000 -0.000000 -0.000000 -0.000000 -0.000000 -0.000000 -0.000000 -0.000000 -0.000000 -0.000000 -0.000000 -0.000000 -0.000000 -0.000000 -0.000000 -0.000000 -0.000000 -0.000000 -0.000000 -0.000000 -0.000000 -0.000000 -0.000000 -0.000000 -0.000000 -0.000000 -0.000000 -0.000000 -0.000000 -0.000000 -0.000000 -0.000000 -0.000000 -0.000000 -0.000000 -0.000000 -0.000000 -0.000000 -0.000000 -0.000000 -0.000000 -0.000000 -0.000000 -0.000000 -0.000000 -0.000000 -0.000000 -0.000000 -0.000000 -1.889319 -15.962420 -3.044850 -10.743603 2.048050 -45.378974 -22.673262 -25.677850 -15.719315 2.461762 -2.430175 6.807756 18.516877 -9.352254 13.200235 -1.014993 11.429189 -8.416380 -0.000001 -0.000000 -0.000001 -1.230639 -5.459047 -0.790877 0.132216 -0.225659 -5.219955 0.000004 0.000002 0.000001 1.882248 4.622885 -5.202236 0.455165 -1.074123 -14.367977 0.000000 0.000002 -0.000001 3.018047 7.905107 -14.697555 -0.726056 -0.634153 -20.270955 -0.000003 -0.000003 -0.000000 2.014163 6.287031 -22.976369 -0.828507 -0.287385 -18.117835 0.000002 0.000002 0.000002 -0.000001 -0.000001 0.000000 -5.079889 24.138013 1.822008 6.573133 -34.379532 55.764550 -14.830233 45.143288 17.007524 2.052961 32.012366 -1.966989 55.149533 18.649536 -29.698277 -0.442595 -14.180561 7.313391 0.000000 -0.000000 -0.000000 5.673391 7.585069 36.844144 1.050437 3.824460 68.900264 -0.000001 0.000004 -0.000002 -0.125231 1.886623 45.000766 -1.168997 3.204696 68.417704 0.000001 0.000003 -0.000004 -5.312351 1.216854 58.508773 -0.740100 1.673715 48.011135 -0.000001 -0.000002 0.000002 -7.756700 -9.376540 47.264038 -0.520058 1.547904 45.600307 -0.000001 0.000000 0.000001 -0.000000 0.000002 -0.000002 -0.000000 -0.000000 -0.000001 -0.000000 -0.000000 -0.000001 -0.000000 -0.000000 -0.000001 -0.000000 -0.000000 -0.000001 -0.000000 -0.000000 -0.000001 -0.000000 -0.000000 -0.000000 -0.000001 -0.000002 0.000000 -0.000001 -0.000002 0.000000 -0.000000 -0.000003 0.000000 -0.000000 0.000001 -0.000000 
